<svg width="254" height="39" viewBox="0 0 254 39" fill="none" xmlns="http://www.w3.org/2000/svg">
<rect x="0.5" width="108" height="39" rx="10" fill="#156FF4"/>
<path d="M24.8409 14.7045C24.7652 13.8712 24.428 13.2235 23.8295 12.7614C23.2386 12.2917 22.3939 12.0568 21.2955 12.0568C20.5682 12.0568 19.9621 12.1515 19.4773 12.3409C18.9924 12.5303 18.6288 12.7917 18.3864 13.125C18.1439 13.4508 18.0189 13.8258 18.0114 14.25C17.9962 14.5985 18.0644 14.9053 18.2159 15.1705C18.375 15.4356 18.6023 15.6705 18.8977 15.875C19.2008 16.072 19.5644 16.2462 19.9886 16.3977C20.4129 16.5492 20.8902 16.6818 21.4205 16.7955L23.4205 17.25C24.572 17.5 25.5871 17.8333 26.4659 18.25C27.3523 18.6667 28.0947 19.1629 28.6932 19.7386C29.2992 20.3144 29.7576 20.9773 30.0682 21.7273C30.3788 22.4773 30.5379 23.3182 30.5455 24.25C30.5379 25.7197 30.1667 26.9811 29.4318 28.0341C28.697 29.0871 27.6402 29.8939 26.2614 30.4545C24.8902 31.0152 23.2348 31.2955 21.2955 31.2955C19.3485 31.2955 17.6515 31.0038 16.2045 30.4205C14.7576 29.8371 13.6326 28.9508 12.8295 27.7614C12.0265 26.572 11.6136 25.0682 11.5909 23.25H16.9773C17.0227 24 17.2235 24.625 17.5795 25.125C17.9356 25.625 18.4242 26.0038 19.0455 26.2614C19.6742 26.5189 20.4015 26.6477 21.2273 26.6477C21.9848 26.6477 22.6288 26.5455 23.1591 26.3409C23.697 26.1364 24.1098 25.8523 24.3977 25.4886C24.6856 25.125 24.8333 24.7083 24.8409 24.2386C24.8333 23.7992 24.697 23.4242 24.4318 23.1136C24.1667 22.7955 23.7576 22.5227 23.2045 22.2955C22.6591 22.0606 21.9621 21.8447 21.1136 21.6477L18.6818 21.0795C16.6667 20.6174 15.0795 19.8712 13.9205 18.8409C12.7614 17.803 12.1856 16.4015 12.1932 14.6364C12.1856 13.197 12.572 11.9356 13.3523 10.8523C14.1326 9.76894 15.2121 8.92424 16.5909 8.31818C17.9697 7.71212 19.5417 7.40909 21.3068 7.40909C23.1098 7.40909 24.6742 7.71591 26 8.32954C27.3333 8.93561 28.3674 9.78788 29.1023 10.8864C29.8371 11.9848 30.2121 13.2576 30.2273 14.7045H24.8409ZM45.9659 14.7045C45.8902 13.8712 45.553 13.2235 44.9545 12.7614C44.3636 12.2917 43.5189 12.0568 42.4205 12.0568C41.6932 12.0568 41.0871 12.1515 40.6023 12.3409C40.1174 12.5303 39.7538 12.7917 39.5114 13.125C39.2689 13.4508 39.1439 13.8258 39.1364 14.25C39.1212 14.5985 39.1894 14.9053 39.3409 15.1705C39.5 15.4356 39.7273 15.6705 40.0227 15.875C40.3258 16.072 40.6894 16.2462 41.1136 16.3977C41.5379 16.5492 42.0152 16.6818 42.5455 16.7955L44.5455 17.25C45.697 17.5 46.7121 17.8333 47.5909 18.25C48.4773 18.6667 49.2197 19.1629 49.8182 19.7386C50.4242 20.3144 50.8826 20.9773 51.1932 21.7273C51.5038 22.4773 51.6629 23.3182 51.6705 24.25C51.6629 25.7197 51.2917 26.9811 50.5568 28.0341C49.822 29.0871 48.7652 29.8939 47.3864 30.4545C46.0152 31.0152 44.3598 31.2955 42.4205 31.2955C40.4735 31.2955 38.7765 31.0038 37.3295 30.4205C35.8826 29.8371 34.7576 28.9508 33.9545 27.7614C33.1515 26.572 32.7386 25.0682 32.7159 23.25H38.1023C38.1477 24 38.3485 24.625 38.7045 25.125C39.0606 25.625 39.5492 26.0038 40.1705 26.2614C40.7992 26.5189 41.5265 26.6477 42.3523 26.6477C43.1098 26.6477 43.7538 26.5455 44.2841 26.3409C44.822 26.1364 45.2348 25.8523 45.5227 25.4886C45.8106 25.125 45.9583 24.7083 45.9659 24.2386C45.9583 23.7992 45.822 23.4242 45.5568 23.1136C45.2917 22.7955 44.8826 22.5227 44.3295 22.2955C43.7841 22.0606 43.0871 21.8447 42.2386 21.6477L39.8068 21.0795C37.7917 20.6174 36.2045 19.8712 35.0455 18.8409C33.8864 17.803 33.3106 16.4015 33.3182 14.6364C33.3106 13.197 33.697 11.9356 34.4773 10.8523C35.2576 9.76894 36.3371 8.92424 37.7159 8.31818C39.0947 7.71212 40.6667 7.40909 42.4318 7.40909C44.2348 7.40909 45.7992 7.71591 47.125 8.32954C48.4583 8.93561 49.4924 9.78788 50.2273 10.8864C50.9621 11.9848 51.3371 13.2576 51.3523 14.7045H45.9659ZM53.75 12.2955V7.72727H73.4205V12.2955H66.3636V31H60.8182V12.2955H53.75ZM90.2472 7.72727H95.8608V22.7386C95.8608 24.4735 95.4479 25.9848 94.6222 27.2727C93.7964 28.553 92.6449 29.5455 91.1676 30.25C89.6903 30.947 87.9744 31.2955 86.0199 31.2955C84.0426 31.2955 82.3153 30.947 80.8381 30.25C79.3608 29.5455 78.2131 28.553 77.3949 27.2727C76.5767 25.9848 76.1676 24.4735 76.1676 22.7386V7.72727H81.7926V22.25C81.7926 23.053 81.9669 23.7689 82.3153 24.3977C82.6714 25.0265 83.1676 25.5189 83.804 25.875C84.4403 26.2311 85.179 26.4091 86.0199 26.4091C86.8608 26.4091 87.5956 26.2311 88.2244 25.875C88.8608 25.5189 89.357 25.0265 89.7131 24.3977C90.0691 23.7689 90.2472 23.053 90.2472 22.25V7.72727Z" fill="white"/>
<path d="M132.841 14.7045C132.765 13.8712 132.428 13.2235 131.83 12.7614C131.239 12.2917 130.394 12.0568 129.295 12.0568C128.568 12.0568 127.962 12.1515 127.477 12.3409C126.992 12.5303 126.629 12.7917 126.386 13.125C126.144 13.4508 126.019 13.8258 126.011 14.25C125.996 14.5985 126.064 14.9053 126.216 15.1705C126.375 15.4356 126.602 15.6705 126.898 15.875C127.201 16.072 127.564 16.2462 127.989 16.3977C128.413 16.5492 128.89 16.6818 129.42 16.7955L131.42 17.25C132.572 17.5 133.587 17.8333 134.466 18.25C135.352 18.6667 136.095 19.1629 136.693 19.7386C137.299 20.3144 137.758 20.9773 138.068 21.7273C138.379 22.4773 138.538 23.3182 138.545 24.25C138.538 25.7197 138.167 26.9811 137.432 28.0341C136.697 29.0871 135.64 29.8939 134.261 30.4545C132.89 31.0152 131.235 31.2955 129.295 31.2955C127.348 31.2955 125.652 31.0038 124.205 30.4205C122.758 29.8371 121.633 28.9508 120.83 27.7614C120.027 26.572 119.614 25.0682 119.591 23.25H124.977C125.023 24 125.223 24.625 125.58 25.125C125.936 25.625 126.424 26.0038 127.045 26.2614C127.674 26.5189 128.402 26.6477 129.227 26.6477C129.985 26.6477 130.629 26.5455 131.159 26.3409C131.697 26.1364 132.11 25.8523 132.398 25.4886C132.686 25.125 132.833 24.7083 132.841 24.2386C132.833 23.7992 132.697 23.4242 132.432 23.1136C132.167 22.7955 131.758 22.5227 131.205 22.2955C130.659 22.0606 129.962 21.8447 129.114 21.6477L126.682 21.0795C124.667 20.6174 123.08 19.8712 121.92 18.8409C120.761 17.803 120.186 16.4015 120.193 14.6364C120.186 13.197 120.572 11.9356 121.352 10.8523C122.133 9.76894 123.212 8.92424 124.591 8.31818C125.97 7.71212 127.542 7.40909 129.307 7.40909C131.11 7.40909 132.674 7.71591 134 8.32954C135.333 8.93561 136.367 9.78788 137.102 10.8864C137.837 11.9848 138.212 13.2576 138.227 14.7045H132.841ZM149.545 31.3295C147.72 31.3295 146.144 30.9697 144.818 30.25C143.5 29.5227 142.485 28.4886 141.773 27.1477C141.068 25.7992 140.716 24.197 140.716 22.3409C140.716 20.5379 141.072 18.9621 141.784 17.6136C142.496 16.2576 143.5 15.2045 144.795 14.4545C146.091 13.697 147.617 13.3182 149.375 13.3182C150.617 13.3182 151.754 13.5114 152.784 13.8977C153.814 14.2841 154.705 14.8561 155.455 15.6136C156.205 16.3712 156.788 17.3068 157.205 18.4205C157.621 19.5265 157.83 20.7955 157.83 22.2273V23.6136H142.659V20.3864H152.659C152.652 19.7955 152.511 19.2689 152.239 18.8068C151.966 18.3447 151.591 17.9848 151.114 17.7273C150.644 17.4621 150.102 17.3295 149.489 17.3295C148.867 17.3295 148.311 17.4697 147.818 17.75C147.326 18.0227 146.936 18.3977 146.648 18.875C146.36 19.3447 146.208 19.8788 146.193 20.4773V23.7614C146.193 24.4735 146.333 25.0985 146.614 25.6364C146.894 26.1667 147.292 26.5795 147.807 26.875C148.322 27.1705 148.936 27.3182 149.648 27.3182C150.14 27.3182 150.587 27.25 150.989 27.1136C151.39 26.9773 151.735 26.7765 152.023 26.5114C152.311 26.2462 152.527 25.9205 152.67 25.5341L157.773 25.6818C157.561 26.8258 157.095 27.822 156.375 28.6705C155.663 29.5114 154.727 30.1667 153.568 30.6364C152.409 31.0985 151.068 31.3295 149.545 31.3295ZM168.815 31.3295C166.974 31.3295 165.395 30.9508 164.077 30.1932C162.766 29.4356 161.759 28.3826 161.054 27.0341C160.349 25.678 159.997 24.1098 159.997 22.3295C159.997 20.5417 160.349 18.9735 161.054 17.625C161.766 16.2689 162.777 15.2121 164.088 14.4545C165.406 13.697 166.978 13.3182 168.804 13.3182C170.418 13.3182 171.823 13.6098 173.02 14.1932C174.224 14.7765 175.164 15.6023 175.838 16.6705C176.52 17.7311 176.88 18.9773 176.918 20.4091H171.724C171.618 19.5152 171.315 18.8144 170.815 18.3068C170.323 17.7992 169.679 17.5455 168.884 17.5455C168.24 17.5455 167.675 17.7273 167.19 18.0909C166.705 18.447 166.327 18.9773 166.054 19.6818C165.789 20.3788 165.656 21.2424 165.656 22.2727C165.656 23.303 165.789 24.1742 166.054 24.8864C166.327 25.5909 166.705 26.125 167.19 26.4886C167.675 26.8447 168.24 27.0227 168.884 27.0227C169.399 27.0227 169.853 26.9129 170.247 26.6932C170.649 26.4735 170.978 26.1515 171.236 25.7273C171.493 25.2955 171.656 24.7727 171.724 24.1591H176.918C176.865 25.5985 176.505 26.8561 175.838 27.9318C175.179 29.0076 174.251 29.8447 173.054 30.4432C171.865 31.0341 170.452 31.3295 168.815 31.3295ZM191.023 23.4659V13.5455H196.568V31H191.273V27.75H191.091C190.705 28.8182 190.045 29.6667 189.114 30.2955C188.189 30.9167 187.072 31.2273 185.761 31.2273C184.572 31.2273 183.527 30.9545 182.625 30.4091C181.723 29.8636 181.023 29.1023 180.523 28.125C180.023 27.1402 179.769 25.9886 179.761 24.6705V13.5455H185.318V23.5795C185.326 24.5265 185.576 25.2727 186.068 25.8182C186.561 26.3636 187.231 26.6364 188.08 26.6364C188.633 26.6364 189.129 26.5152 189.568 26.2727C190.015 26.0227 190.367 25.6629 190.625 25.1932C190.89 24.7159 191.023 24.1402 191.023 23.4659ZM200.105 31V13.5455H205.503V16.7273H205.685C206.003 15.5758 206.522 14.7197 207.241 14.1591C207.961 13.5909 208.798 13.3068 209.753 13.3068C210.01 13.3068 210.276 13.3258 210.548 13.3636C210.821 13.3939 211.075 13.4432 211.31 13.5114V18.3409C211.045 18.25 210.696 18.178 210.264 18.125C209.84 18.072 209.461 18.0455 209.128 18.0455C208.469 18.0455 207.874 18.1932 207.344 18.4886C206.821 18.7765 206.408 19.1818 206.105 19.7045C205.81 20.2197 205.662 20.8258 205.662 21.5227V31H200.105ZM213.574 31V13.5455H219.131V31H213.574ZM216.358 11.5114C215.578 11.5114 214.907 11.2538 214.347 10.7386C213.786 10.2159 213.506 9.58712 213.506 8.85227C213.506 8.125 213.786 7.50379 214.347 6.98864C214.907 6.46591 215.578 6.20454 216.358 6.20454C217.146 6.20454 217.816 6.46591 218.369 6.98864C218.93 7.50379 219.21 8.125 219.21 8.85227C219.21 9.58712 218.93 10.2159 218.369 10.7386C217.816 11.2538 217.146 11.5114 216.358 11.5114ZM232.52 13.5455V17.6364H221.509V13.5455H232.52ZM223.815 9.36364H229.372V25.5114C229.372 25.8523 229.425 26.1288 229.531 26.3409C229.645 26.5455 229.808 26.6932 230.02 26.7841C230.232 26.8674 230.486 26.9091 230.781 26.9091C230.993 26.9091 231.217 26.8902 231.452 26.8523C231.694 26.8068 231.876 26.7689 231.997 26.7386L232.838 30.75C232.573 30.8258 232.198 30.9205 231.713 31.0341C231.236 31.1477 230.664 31.2197 229.997 31.25C228.694 31.3106 227.577 31.1591 226.645 30.7955C225.721 30.4242 225.012 29.8485 224.52 29.0682C224.035 28.2879 223.8 27.3068 223.815 26.125V9.36364ZM238.753 37.5455C238.086 37.5455 237.457 37.4924 236.866 37.3864C236.276 37.2879 235.768 37.1553 235.344 36.9886L236.571 32.9545C237.116 33.1364 237.609 33.2424 238.048 33.2727C238.495 33.303 238.878 33.2311 239.196 33.0568C239.522 32.8902 239.772 32.5909 239.946 32.1591L240.162 31.6364L233.957 13.5455H239.776L242.991 26H243.173L246.435 13.5455H252.287L245.707 32.6705C245.389 33.625 244.938 34.4659 244.355 35.1932C243.779 35.928 243.033 36.5038 242.116 36.9205C241.207 37.3371 240.086 37.5455 238.753 37.5455Z" fill="#156FF4"/>
</svg>
