<svg width="249" height="39" viewBox="0 0 249 39" fill="none" xmlns="http://www.w3.org/2000/svg">
<rect width="107" height="39" rx="10" fill="#156FF4"/>
<path d="M32.8864 16.1591H27.2045C27.1288 15.5758 26.9735 15.0492 26.7386 14.5795C26.5038 14.1098 26.1932 13.7083 25.8068 13.375C25.4205 13.0417 24.9621 12.7879 24.4318 12.6136C23.9091 12.4318 23.3295 12.3409 22.6932 12.3409C21.5644 12.3409 20.5909 12.6174 19.7727 13.1705C18.9621 13.7235 18.3371 14.5227 17.8977 15.5682C17.4659 16.6136 17.25 17.8788 17.25 19.3636C17.25 20.9091 17.4697 22.2045 17.9091 23.25C18.3561 24.2879 18.9811 25.072 19.7841 25.6023C20.5947 26.125 21.553 26.3864 22.6591 26.3864C23.2803 26.3864 23.8447 26.3068 24.3523 26.1477C24.8674 25.9886 25.3182 25.7576 25.7045 25.4545C26.0985 25.1439 26.4205 24.7689 26.6705 24.3295C26.928 23.8826 27.1061 23.3788 27.2045 22.8182L32.8864 22.8523C32.7879 23.8826 32.4886 24.8977 31.9886 25.8977C31.4962 26.8977 30.8182 27.8106 29.9545 28.6364C29.0909 29.4545 28.0379 30.1061 26.7955 30.5909C25.5606 31.0758 24.1439 31.3182 22.5455 31.3182C20.4394 31.3182 18.553 30.8561 16.8864 29.9318C15.2273 29 13.9167 27.6439 12.9545 25.8636C11.9924 24.0833 11.5114 21.9167 11.5114 19.3636C11.5114 16.803 12 14.6326 12.9773 12.8523C13.9545 11.072 15.2765 9.7197 16.9432 8.79545C18.6098 7.87121 20.4773 7.40909 22.5455 7.40909C23.9545 7.40909 25.2576 7.60606 26.4545 8C27.6515 8.38636 28.7045 8.95454 29.6136 9.70454C30.5227 10.447 31.2614 11.3598 31.8295 12.4432C32.3977 13.5265 32.75 14.7652 32.8864 16.1591ZM52.0028 7.72727V12.2955H41.7301V31H36.1051V7.72727H52.0028ZM54 12.2955V7.72727H73.6705V12.2955H66.6136V31H61.0682V12.2955H54ZM79.3608 31.3182V26.8636H80.554C81.1979 26.8636 81.7131 26.7992 82.0994 26.6705C82.4934 26.5341 82.8002 26.3182 83.0199 26.0227C83.2472 25.7273 83.4366 25.3333 83.5881 24.8409L83.8494 24.125L75.2585 7.72727H81.0312L86.2017 18.1818L90.3608 7.72727H96.0426L88.0426 26.1705C87.6259 27.0795 87.1335 27.928 86.5653 28.7159C85.9972 29.4962 85.2813 30.125 84.4176 30.6023C83.5616 31.0795 82.482 31.3182 81.179 31.3182H79.3608Z" fill="white"/>
<path d="M127.977 31L120.659 21.3409H119.386V31H113.761V7.72727H119.386V16.7614H120.284L127.489 7.72727H134.523L125.557 18.7159L134.989 31H127.977ZM143.909 31.3295C142.076 31.3295 140.5 30.9545 139.182 30.2045C137.871 29.447 136.86 28.3939 136.148 27.0455C135.443 25.6894 135.091 24.1174 135.091 22.3295C135.091 20.5341 135.443 18.9621 136.148 17.6136C136.86 16.2576 137.871 15.2045 139.182 14.4545C140.5 13.697 142.076 13.3182 143.909 13.3182C145.742 13.3182 147.314 13.697 148.625 14.4545C149.943 15.2045 150.955 16.2576 151.659 17.6136C152.371 18.9621 152.727 20.5341 152.727 22.3295C152.727 24.1174 152.371 25.6894 151.659 27.0455C150.955 28.3939 149.943 29.447 148.625 30.2045C147.314 30.9545 145.742 31.3295 143.909 31.3295ZM143.943 27.1364C144.61 27.1364 145.174 26.9318 145.636 26.5227C146.098 26.1136 146.451 25.5455 146.693 24.8182C146.943 24.0909 147.068 23.25 147.068 22.2955C147.068 21.3258 146.943 20.4773 146.693 19.75C146.451 19.0227 146.098 18.4545 145.636 18.0455C145.174 17.6364 144.61 17.4318 143.943 17.4318C143.254 17.4318 142.67 17.6364 142.193 18.0455C141.723 18.4545 141.364 19.0227 141.114 19.75C140.871 20.4773 140.75 21.3258 140.75 22.2955C140.75 23.25 140.871 24.0909 141.114 24.8182C141.364 25.5455 141.723 26.1136 142.193 26.5227C142.67 26.9318 143.254 27.1364 143.943 27.1364ZM167.881 20.1023V24.3409H158.926V20.1023H167.881ZM160.835 13.5455V31H155.574V13.5455H160.835ZM171.233 13.5455V31H166.006V13.5455H171.233ZM186.912 20.1023V24.3409H177.957V20.1023H186.912ZM179.866 13.5455V31H174.605V13.5455H179.866ZM190.264 13.5455V31H185.037V13.5455H190.264ZM201.795 31.3295C199.97 31.3295 198.394 30.9697 197.068 30.25C195.75 29.5227 194.735 28.4886 194.023 27.1477C193.318 25.7992 192.966 24.197 192.966 22.3409C192.966 20.5379 193.322 18.9621 194.034 17.6136C194.746 16.2576 195.75 15.2045 197.045 14.4545C198.341 13.697 199.867 13.3182 201.625 13.3182C202.867 13.3182 204.004 13.5114 205.034 13.8977C206.064 14.2841 206.955 14.8561 207.705 15.6136C208.455 16.3712 209.038 17.3068 209.455 18.4205C209.871 19.5265 210.08 20.7955 210.08 22.2273V23.6136H194.909V20.3864H204.909C204.902 19.7955 204.761 19.2689 204.489 18.8068C204.216 18.3447 203.841 17.9848 203.364 17.7273C202.894 17.4621 202.352 17.3295 201.739 17.3295C201.117 17.3295 200.561 17.4697 200.068 17.75C199.576 18.0227 199.186 18.3977 198.898 18.875C198.61 19.3447 198.458 19.8788 198.443 20.4773V23.7614C198.443 24.4735 198.583 25.0985 198.864 25.6364C199.144 26.1667 199.542 26.5795 200.057 26.875C200.572 27.1705 201.186 27.3182 201.898 27.3182C202.39 27.3182 202.837 27.25 203.239 27.1136C203.64 26.9773 203.985 26.7765 204.273 26.5114C204.561 26.2462 204.777 25.9205 204.92 25.5341L210.023 25.6818C209.811 26.8258 209.345 27.822 208.625 28.6705C207.913 29.5114 206.977 30.1667 205.818 30.6364C204.659 31.0985 203.318 31.3295 201.795 31.3295ZM212.918 31V13.5455H218.474V20.0455H219.702L223.94 13.5455H230.372L224.497 22.2841L230.429 31H223.918L220.088 25.2045H218.474V31H212.918ZM231.281 17.7955V13.5455H247.645V17.7955H242.065V31H236.793V17.7955H231.281Z" fill="#156FF4"/>
</svg>
